<svg width="24" height="25" viewBox="0 0 24 25" fill="none" xmlns="http://www.w3.org/2000/svg">
<path d="M11.993 10.3223C11.0637 10.3268 10.3124 11.0808 10.3113 12.0101V12.0181C10.3152 12.9507 11.0743 13.7036 12.007 13.6997C12.9396 13.6959 13.6925 12.9367 13.6887 12.004C13.6848 11.0714 12.9256 10.3185 11.993 10.3223" stroke="#323232" stroke-width="1.5" stroke-linecap="round" stroke-linejoin="round"/>
<path d="M13.1934 13.2036L14.4439 14.4541" stroke="#171215" stroke-width="1.5" stroke-linecap="round" stroke-linejoin="round"/>
<path d="M7.79816 7.80835L10.7994 10.8096" stroke="#171215" stroke-width="1.5" stroke-linecap="round" stroke-linejoin="round"/>
<path d="M5.63325 5.64337C2.59591 8.68072 2.1271 13.4406 4.51352 17.0122C6.89994 20.5837 11.4769 21.9721 15.4454 20.3284C19.4139 18.6846 21.6686 14.4664 20.8306 10.2535C19.9927 6.04058 16.2954 3.00623 12 3.00623V6.00748" stroke="#323232" stroke-width="1.5" stroke-linecap="round" stroke-linejoin="round"/>
</svg>
