<svg width="26" height="26" viewBox="0 0 26 26" fill="none" xmlns="http://www.w3.org/2000/svg">
<path d="M1 1V0.25H0.25V1H1ZM25.01 1H25.76V0.25H25.01V1ZM25.01 25.01V25.76H25.76V25.01H25.01ZM1 25.01H0.25V25.76H1V25.01ZM8.73622 21.8377L8.39203 21.1713L8.38917 21.1728L8.73622 21.8377ZM7.15444 21.7175L6.71093 22.3223L6.71093 22.3223L7.15444 21.7175ZM6.56432 20.245L7.30277 20.3761L7.30316 20.3739L6.56432 20.245ZM7.37365 15.6061L8.11249 15.735C8.15544 15.4888 8.07298 15.2375 7.89258 15.0646L7.37365 15.6061ZM3.96624 12.3407L4.48516 11.7992L4.48384 11.798L3.96624 12.3407ZM3.57333 10.7952L4.2873 11.0249L3.57333 10.7952ZM4.79358 9.76865L4.89768 10.5114L4.89971 10.5111L4.79358 9.76865ZM9.52455 9.09237L9.63068 9.83482C9.87402 9.80004 10.0849 9.64822 10.195 9.42847L9.52455 9.09237ZM11.6604 4.8316L12.3309 5.1677L12.3324 5.16464L11.6604 4.8316ZM14.3496 4.8316L13.6776 5.16464L13.6791 5.1677L14.3496 4.8316ZM16.4854 9.09237L15.815 9.42847C15.9251 9.64822 16.136 9.80004 16.3793 9.83482L16.4854 9.09237ZM21.2164 9.76865L21.1103 10.5111L21.1123 10.5114L21.2164 9.76865ZM22.4367 10.7952L21.7227 11.0249L21.7227 11.0249L22.4367 10.7952ZM22.0438 12.3407L21.5262 11.798L21.5248 11.7992L22.0438 12.3407ZM18.6363 15.6061L18.1174 15.0646C17.937 15.2375 17.8546 15.4888 17.8975 15.735L18.6363 15.6061ZM19.4457 20.246L18.7068 20.3749L18.7072 20.3771L19.4457 20.246ZM18.8556 21.7185L19.2991 22.3233L19.2991 22.3233L18.8556 21.7185ZM17.2738 21.8387L17.6208 21.1738L17.6181 21.1724L17.2738 21.8387ZM13.005 19.6328L13.3493 18.9665C13.1334 18.8549 12.8768 18.8549 12.6608 18.9664L13.005 19.6328ZM1 1.75H25.01V0.25H1V1.75ZM24.26 1V25.01H25.76V1H24.26ZM25.01 24.26H1V25.76H25.01V24.26ZM1.75 25.01V1H0.25V25.01H1.75ZM8.38917 21.1728C8.13553 21.3052 7.82868 21.2819 7.59795 21.1127L6.71093 22.3223C7.40273 22.8296 8.32277 22.8995 9.08327 22.5026L8.38917 21.1728ZM7.59795 21.1127C7.36722 20.9435 7.25274 20.6579 7.30277 20.3761L5.82587 20.1139C5.67588 20.9585 6.01912 21.815 6.71093 22.3223L7.59795 21.1127ZM7.30316 20.3739L8.11249 15.735L6.63481 15.4772L5.82548 20.1161L7.30316 20.3739ZM7.89258 15.0646L4.48516 11.7992L3.44731 12.8822L6.85473 16.1476L7.89258 15.0646ZM4.48384 11.798C4.2755 11.5993 4.19915 11.299 4.2873 11.0249L2.85936 10.5656C2.59504 11.3873 2.82397 12.2878 3.44863 12.8835L4.48384 11.798ZM4.2873 11.0249C4.37546 10.7508 4.61258 10.5514 4.89768 10.5114L4.68948 9.02591C3.83466 9.14572 3.12367 9.74387 2.85936 10.5656L4.2873 11.0249ZM4.89971 10.5111L9.63068 9.83482L9.41842 8.34992L4.68745 9.0262L4.89971 10.5111ZM10.195 9.42847L12.3309 5.1677L10.99 4.49549L8.85408 8.75627L10.195 9.42847ZM12.3324 5.16464C12.4591 4.90903 12.7197 4.74733 13.005 4.74733V3.24733C12.1497 3.24733 11.3683 3.73217 10.9884 4.49856L12.3324 5.16464ZM13.005 4.74733C13.2903 4.74733 13.5509 4.90903 13.6776 5.16464L15.0216 4.49856C14.6417 3.73217 13.8603 3.24733 13.005 3.24733V4.74733ZM13.6791 5.1677L15.815 9.42847L17.1559 8.75627L15.02 4.49549L13.6791 5.1677ZM16.3793 9.83482L21.1103 10.5111L21.3226 9.0262L16.5916 8.34992L16.3793 9.83482ZM21.1123 10.5114C21.3974 10.5514 21.6345 10.7508 21.7227 11.0249L23.1506 10.5656C22.8863 9.74387 22.1753 9.14572 21.3205 9.02591L21.1123 10.5114ZM21.7227 11.0249C21.8109 11.299 21.7345 11.5993 21.5262 11.798L22.5614 12.8835C23.186 12.2878 23.415 11.3873 23.1506 10.5656L21.7227 11.0249ZM21.5248 11.7992L18.1174 15.0646L19.1553 16.1476L22.5627 12.8822L21.5248 11.7992ZM17.8975 15.735L18.7068 20.3749L20.1845 20.1171L19.3752 15.4772L17.8975 15.735ZM18.7072 20.3771C18.7573 20.6589 18.6428 20.9445 18.4121 21.1137L19.2991 22.3233C19.9909 21.816 20.3341 20.9595 20.1841 20.1149L18.7072 20.3771ZM18.4121 21.1137C18.1813 21.2829 17.8745 21.3062 17.6208 21.1738L16.9267 22.5036C17.6872 22.9005 18.6073 22.8306 19.2991 22.3233L18.4121 21.1137ZM17.6181 21.1724L13.3493 18.9665L12.6607 20.2991L16.9295 22.505L17.6181 21.1724ZM12.6608 18.9664L8.39203 21.1713L9.08041 22.504L13.3492 20.2991L12.6608 18.9664Z" fill="#171215"/>
</svg>
